# xmcd
#
# Track frame offsets:
#	150
#	15688
#	32300
#	47513
#	60650
#	79088
#	94338
#	109013
#	124100
#	139725
#
# Disc length: 2065 seconds
#
# Revision: 2
# Processed by: cddbd v1.5.2PL0 Copyright (c) Steve Scherf et al.
# Submitted via: EasyCDDAExtractor 15.3.0.1
#
DISCID=78080f0a
DTITLE=Pandora - Huellas
DYEAR=1987
DGENRE=Latin
TTITLE0=Locos Por La Musica
TTITLE1=Cinco Minutos De Amor
TTITLE2=Pobre De El
TTITLE3=Amor Amor
TTITLE4=Como Un Susurro
TTITLE5=Fuera De Mi Corazon
TTITLE6=Ella Se Lleno De Amor
TTITLE7=Mi Hombre
TTITLE8=Causa Perdida
TTITLE9=Solo Le Pido A Dios
EXTD=
EXTT0=
EXTT1=
EXTT2=
EXTT3=
EXTT4=
EXTT5=
EXTT6=
EXTT7=
EXTT8=
EXTT9=
PLAYORDER=
